<?xml version="1.0" encoding="utf-8"?>
<!-- Generator: Adobe Illustrator 27.0.1, SVG Export Plug-In . SVG Version: 6.00 Build 0)  -->
<svg version="1.1" id="Layer_1" xmlns="http://www.w3.org/2000/svg" xmlns:xlink="http://www.w3.org/1999/xlink" x="0px" y="0px"
	 viewBox="0 0 228.06 18.67" style="enable-background:new 0 0 228.06 18.67;" xml:space="preserve">
<style type="text/css">
	.st0{fill:#FFFFFF;}
</style>
<g>
	<path class="st0" d="M2.87,4.51l0.64-1.05h2.13v10.77H4.57V4.51H2.87z"/>
	<path class="st0" d="M12.7,6.56c0.42-2.16,1.73-3.37,3.48-3.37c1.35,0,2.54,0.81,3.17,2.28c0.42,0.96,0.54,2.07,0.54,3.36
		s-0.14,2.41-0.54,3.37c-0.63,1.47-1.82,2.29-3.17,2.29c-1.2,0-2.19-0.57-2.85-1.66c-0.63-1.04-0.81-2.36-0.81-4
		C12.52,8.08,12.55,7.31,12.7,6.56z M14.18,12.29c0.46,0.78,1.23,1.21,2.01,1.21c1.56,0,2.69-1.5,2.69-4.67
		c0-3.15-1.11-4.67-2.69-4.67c-0.79,0-1.54,0.46-2.01,1.25c-0.5,0.83-0.62,1.95-0.62,3.42C13.57,10.33,13.69,11.47,14.18,12.29z"/>
	<path class="st0" d="M26.53,13.52c0,0.51-0.41,0.92-0.9,0.92c-0.51,0-0.9-0.42-0.9-0.92s0.4-0.92,0.9-0.92
		C26.11,12.61,26.53,13.01,26.53,13.52z"/>
	<path class="st0" d="M35.09,9.79c1.26-1.37,1.99-2.19,1.99-3.36c0-1.25-1.02-2.25-2.32-2.25c-1.37,0-2.37,1-2.5,2.66h-1.04
		c0.06-2.1,1.58-3.64,3.58-3.64c1.95,0,3.33,1.44,3.33,3.24c0,1.47-0.87,2.49-2.15,3.87l-2.68,2.88h4.98v1.05h-7.32L35.09,9.79z"/>
	<path class="st0" d="M46.4,9.79c1.26-1.37,1.99-2.19,1.99-3.36c0-1.25-1.02-2.25-2.32-2.25c-1.37,0-2.37,1-2.5,2.66h-1.04
		c0.06-2.1,1.58-3.64,3.58-3.64c1.95,0,3.33,1.44,3.33,3.24c0,1.47-0.87,2.49-2.15,3.87l-2.68,2.88h4.98v1.05h-7.32L46.4,9.79z"/>
	<path class="st0" d="M53.78,6.56c0.42-2.16,1.73-3.37,3.48-3.37c1.35,0,2.54,0.81,3.17,2.28c0.42,0.96,0.54,2.07,0.54,3.36
		s-0.14,2.41-0.54,3.37c-0.63,1.47-1.82,2.29-3.17,2.29c-1.2,0-2.19-0.57-2.85-1.66c-0.63-1.04-0.81-2.36-0.81-4
		C53.6,8.08,53.63,7.31,53.78,6.56z M55.27,12.29c0.46,0.78,1.23,1.21,2.01,1.21c1.56,0,2.69-1.5,2.69-4.67
		c0-3.15-1.11-4.67-2.69-4.67c-0.79,0-1.54,0.46-2.01,1.25c-0.5,0.83-0.62,1.95-0.62,3.42C54.65,10.33,54.77,11.47,55.27,12.29z"/>
	<path class="st0" d="M68.5,4.24c-1.05,0-1.65,0.58-2.07,1.71h-1.09c0.41-1.85,1.65-2.76,3.15-2.76c1.74,0,3.1,1.24,3.1,2.77
		c0,0.92-0.46,1.67-1.38,2.21c1.28,0.52,1.96,1.67,1.96,2.85c0,1.8-1.42,3.48-3.66,3.48c-1.86,0-3.15-1.06-3.54-3.15h1.06
		c0.36,1.37,1.09,2.1,2.49,2.1c1.57,0,2.59-1.11,2.59-2.35c0-0.79-0.45-1.53-1.2-1.93c-0.62-0.33-1.26-0.38-1.95-0.41V7.76
		c1.71-0.1,2.49-0.81,2.49-1.8C70.46,5.05,69.67,4.24,68.5,4.24z"/>
	<path class="st0" d="M78.77,8.23c-1.44,0-2.54-1.18-2.54-2.46c0-1.63,1.28-2.58,2.54-2.58c1.33,0,2.52,1.03,2.52,2.5
		C81.29,7.19,80.08,8.23,78.77,8.23z M78.76,3.97c-0.86,0-1.65,0.72-1.65,1.79c0,0.88,0.78,1.7,1.62,1.7c1.05,0,1.7-0.86,1.7-1.73
		C80.42,4.75,79.73,3.97,78.76,3.97z"/>
	<path class="st0" d="M93.25,14.23V3.46h0.22l7.14,8.25V3.46h1.08v10.77h-0.24l-7.12-8.14v8.14H93.25z"/>
	<path class="st0" d="M108.19,12.25l0.97,0.46l-1.48,2.77l-0.72-0.3L108.19,12.25z"/>
	<path class="st0" d="M124.54,3.19c1.77,0,3.08,1.32,3.08,2.83c0,0.99-0.5,1.74-1.52,2.29c1.31,0.66,2.03,1.5,2.03,2.82
		c0,1.71-1.25,3.34-3.66,3.34c-2.35,0-3.61-1.59-3.61-3.25c0-1.38,0.78-2.25,2.08-2.91c-1.08-0.55-1.61-1.39-1.61-2.32
		C121.33,4.51,122.71,3.19,124.54,3.19z M121.9,11.26c0,1.18,0.97,2.23,2.58,2.23c1.57,0,2.59-1.09,2.59-2.34
		c0-1.14-1.07-2.29-2.54-2.29C122.99,8.86,121.9,10.04,121.9,11.26z M122.45,6.01c0,1,1,1.86,2.07,1.86c1.21,0,2.04-0.98,2.04-1.89
		c0-0.82-0.7-1.74-2.07-1.74C123.32,4.24,122.45,5.03,122.45,6.01z"/>
	<path class="st0" d="M139.01,3.46v1.05h-3.84l-0.53,2.91c0.27-0.08,0.66-0.2,1.26-0.2c2.03,0,3.41,1.51,3.41,3.5
		c0,2.07-1.44,3.76-3.78,3.76c-1.83,0-3.06-1.21-3.28-2.87h1.11c0.27,1.32,1.28,1.88,2.25,1.88c1.38,0,2.58-1.17,2.58-2.82
		c0-1.46-0.99-2.46-2.54-2.46c-0.84,0-1.57,0.29-2.29,0.58l0.99-5.34H139.01z"/>
	<path class="st0" d="M146.1,13.52c0,0.51-0.41,0.92-0.9,0.92c-0.51,0-0.9-0.42-0.9-0.92s0.4-0.92,0.9-0.92
		C145.68,12.61,146.1,13.01,146.1,13.52z"/>
	<path class="st0" d="M154.31,3.19c1.77,0,3.08,1.32,3.08,2.83c0,0.99-0.5,1.74-1.52,2.29c1.31,0.66,2.03,1.5,2.03,2.82
		c0,1.71-1.25,3.34-3.66,3.34c-2.35,0-3.61-1.59-3.61-3.25c0-1.38,0.78-2.25,2.08-2.91c-1.08-0.55-1.61-1.39-1.61-2.32
		C151.1,4.51,152.48,3.19,154.31,3.19z M151.67,11.26c0,1.18,0.97,2.23,2.58,2.23c1.57,0,2.59-1.09,2.59-2.34
		c0-1.14-1.07-2.29-2.54-2.29C152.76,8.86,151.67,10.04,151.67,11.26z M152.22,6.01c0,1,1,1.86,2.07,1.86
		c1.21,0,2.04-0.98,2.04-1.89c0-0.82-0.71-1.74-2.07-1.74C153.09,4.24,152.22,5.03,152.22,6.01z"/>
	<path class="st0" d="M165.45,4.24c-1.05,0-1.65,0.58-2.07,1.71h-1.09c0.41-1.85,1.65-2.76,3.15-2.76c1.74,0,3.1,1.24,3.1,2.77
		c0,0.92-0.46,1.67-1.38,2.21c1.28,0.52,1.96,1.67,1.96,2.85c0,1.8-1.42,3.48-3.66,3.48c-1.86,0-3.15-1.06-3.54-3.15h1.06
		c0.36,1.37,1.09,2.1,2.49,2.1c1.57,0,2.59-1.11,2.59-2.35c0-0.79-0.45-1.53-1.2-1.93c-0.62-0.33-1.26-0.38-1.95-0.41V7.76
		c1.71-0.1,2.49-0.81,2.49-1.8C167.42,5.05,166.62,4.24,165.45,4.24z"/>
	<path class="st0" d="M179.1,3.19h0.22v7.48h1.31v1.05h-1.31v2.5h-1.08v-2.5h-5.15L179.1,3.19z M178.25,10.67V6.2l-3.17,4.47H178.25
		z"/>
	<path class="st0" d="M191.4,3.46v1.05h-3.84l-0.53,2.91c0.27-0.08,0.66-0.2,1.26-0.2c2.03,0,3.41,1.51,3.41,3.5
		c0,2.07-1.44,3.76-3.78,3.76c-1.83,0-3.06-1.21-3.28-2.87h1.11c0.27,1.32,1.28,1.88,2.25,1.88c1.38,0,2.58-1.17,2.58-2.82
		c0-1.46-0.99-2.46-2.54-2.46c-0.84,0-1.57,0.29-2.29,0.58l0.99-5.34H191.4z"/>
	<path class="st0" d="M198.35,8.23c-1.44,0-2.54-1.18-2.54-2.46c0-1.63,1.28-2.58,2.54-2.58c1.33,0,2.52,1.03,2.52,2.5
		C200.87,7.19,199.65,8.23,198.35,8.23z M198.33,3.97c-0.86,0-1.65,0.72-1.65,1.79c0,0.88,0.78,1.7,1.62,1.7
		c1.05,0,1.7-0.86,1.7-1.73C200,4.75,199.31,3.97,198.33,3.97z"/>
	<path class="st0" d="M212.19,3.46h1.11l2.19,7.75l3.09-7.75h0.22l3.04,7.75l2.24-7.75h1.09l-3.09,10.77h-0.21l-3.18-8.14
		l-3.27,8.14h-0.2L212.19,3.46z"/>
</g>
</svg>
