<?xml version="1.0" encoding="utf-8"?>
<!-- Generator: Adobe Illustrator 27.0.1, SVG Export Plug-In . SVG Version: 6.00 Build 0)  -->
<svg version="1.1" id="Layer_1" xmlns="http://www.w3.org/2000/svg" xmlns:xlink="http://www.w3.org/1999/xlink" x="0px" y="0px"
	 viewBox="0 0 576 384.14" style="enable-background:new 0 0 576 384.14;" xml:space="preserve">
<g>
	<g>
		<rect x="285.27" y="10.89" width="4.24" height="162.92"/>
		<rect x="256.45" y="14.84" transform="matrix(0.9659 -0.2588 0.2588 0.9659 -16.1138 70.2045)" width="4.24" height="162.92"/>
		<rect x="229.64" y="26.12" transform="matrix(0.866 -0.5 0.5 0.866 -22.7403 130.2933)" width="4.24" height="162.92"/>
		<rect x="206.65" y="43.95" transform="matrix(0.7071 -0.7071 0.7071 0.7071 -27.5335 184.3598)" width="4.24" height="162.92"/>
		<rect x="189.07" y="67.13" transform="matrix(0.5 -0.866 0.866 0.5 -33.092 239.8654)" width="4.24" height="162.92"/>
		<rect x="178.08" y="94.07" transform="matrix(0.2588 -0.9659 0.9659 0.2588 -35.9875 304.1596)" width="4.24" height="162.92"/>
		<rect x="95.1" y="202.27" width="162.92" height="4.24"/>
		<rect x="317.98" y="201.06" width="162.92" height="4.24"/>
		<rect x="314.03" y="172.24" transform="matrix(0.9659 -0.2588 0.2588 0.9659 -31.6516 108.3005)" width="162.92" height="4.24"/>
		<rect x="302.75" y="145.42" transform="matrix(0.866 -0.5 0.5 0.866 -22.297 211.8717)" width="162.92" height="4.24"/>
		<rect x="284.91" y="122.44" transform="matrix(0.7071 -0.7071 0.7071 0.7071 19.2318 295.5469)" width="162.92" height="4.24"/>
		<rect x="261.74" y="104.85" transform="matrix(0.5 -0.866 0.866 0.5 78.9555 350.703)" width="162.92" height="4.24"/>
		<rect x="234.8" y="93.87" transform="matrix(0.2588 -0.9659 0.9659 0.2588 141.6884 376.6257)" width="162.92" height="4.24"/>
	</g>
	<g>
		<path d="M3.88,271.67h5.24v52.28H3.88V271.67z"/>
		<path d="M35.77,323.94v-52.28h1.09l34.66,40.04v-40.04h5.24v52.28h-1.16l-34.58-39.53v39.53H35.77z"/>
		<path d="M104.06,271.67h12.89c5.75,0,11.07,0.29,16.24,2.4c9.39,3.78,15,12.81,15,24.32c0,14.92-9.03,25.55-25.85,25.55h-18.27
			V271.67z M117.02,318.85c9.9,0,16.46-0.87,21.12-6.55c2.98-3.64,4.59-8.37,4.59-13.83c0-5.31-1.46-10.05-4.37-13.84
			c-4.95-6.48-12.38-7.86-23.74-7.86h-5.31v42.08H117.02z"/>
		<path d="M225.64,297.81c0,15.36-12.01,27.45-27.52,27.45c-16.09,0-27.59-12.6-27.59-27.23c0-15.58,12.08-27.67,27.16-27.67
			C213.55,270.36,225.64,282.22,225.64,297.81z M175.99,298.03c0,12.89,10.19,22.13,21.99,22.13c12.23,0,22.21-9.32,22.21-22.42
			c0-13.25-10.63-22.28-22.21-22.28C186.47,275.46,175.99,284.63,175.99,298.03z"/>
		<path d="M281.41,271.67h5.68l17.33,40.41l17.62-40.41h5.68L305,323.94h-1.17L281.41,271.67z"/>
		<path d="M350.28,271.67h5.24v52.28h-5.24V271.67z"/>
		<path d="M382.1,271.67h5.24v47.18h20.1v5.1H382.1V271.67z"/>
		<path d="M430.37,271.67h5.24v47.18h20.1v5.1h-25.34V271.67z"/>
		<path d="M499.97,271.67l24.39,52.28h-5.61l-8.23-17.18h-22.57l-8.16,17.18h-5.82l24.75-52.28H499.97z M499.32,282.74l-9.03,18.93
			h17.91L499.32,282.74z"/>
		<path d="M567.1,282.15c-2.84-3.71-5.31-6.41-9.61-6.41c-4.51,0-7.06,3.2-7.06,6.63c0,2.84,1.67,5.82,4.66,8.08
			c9.83,7.28,17.04,12.3,17.04,20.75c0,7.35-6.19,14.05-14.71,14.05c-7.21,0-11.94-4-15.8-11.07l4.44-2.69
			c3.13,5.75,6.92,8.66,10.92,8.66c5.46,0,9.68-4,9.68-8.88c0-5.75-5.39-9.03-17.25-18.64c-2.48-1.97-4.44-6.12-4.44-10.05
			c0-7.21,5.61-12.23,12.67-12.23c6.41,0,10.27,3.86,13.69,8.52L567.1,282.15z"/>
	</g>
	<g>
		<path d="M110.72,361.04l1.02-1.66h3.37v17.06h-1.71v-15.39H110.72z"/>
		<path d="M126.28,364.29c0.67-3.42,2.73-5.34,5.51-5.34c2.14,0,4.01,1.28,5.01,3.61c0.67,1.52,0.86,3.28,0.86,5.32
			s-0.21,3.82-0.86,5.34c-1,2.33-2.88,3.63-5.01,3.63c-1.9,0-3.47-0.9-4.51-2.64c-1-1.64-1.28-3.73-1.28-6.34
			C125.99,366.69,126.04,365.48,126.28,364.29z M128.63,373.37c0.74,1.23,1.95,1.92,3.18,1.92c2.47,0,4.25-2.38,4.25-7.39
			c0-4.99-1.76-7.39-4.25-7.39c-1.26,0-2.45,0.74-3.18,1.97c-0.78,1.31-0.97,3.09-0.97,5.42
			C127.66,370.26,127.85,372.06,128.63,373.37z"/>
		<path d="M148.18,375.32c0,0.81-0.64,1.45-1.43,1.45c-0.81,0-1.42-0.67-1.42-1.45s0.64-1.45,1.42-1.45
			C147.52,373.87,148.18,374.51,148.18,375.32z"/>
		<path d="M161.75,369.4c2-2.16,3.16-3.47,3.16-5.32c0-1.97-1.61-3.56-3.68-3.56c-2.16,0-3.75,1.59-3.97,4.21h-1.64
			c0.09-3.33,2.49-5.77,5.68-5.77c3.09,0,5.27,2.28,5.27,5.13c0,2.33-1.38,3.94-3.4,6.13l-4.25,4.56h7.89v1.66h-11.59L161.75,369.4z
			"/>
		<path d="M179.66,369.4c2-2.16,3.16-3.47,3.16-5.32c0-1.97-1.61-3.56-3.68-3.56c-2.16,0-3.75,1.59-3.97,4.21h-1.64
			c0.09-3.33,2.49-5.77,5.68-5.77c3.09,0,5.27,2.28,5.27,5.13c0,2.33-1.38,3.94-3.4,6.13l-4.25,4.56h7.89v1.66h-11.59L179.66,369.4z
			"/>
		<path d="M191.34,364.29c0.67-3.42,2.73-5.34,5.51-5.34c2.14,0,4.01,1.28,5.01,3.61c0.67,1.52,0.86,3.28,0.86,5.32
			s-0.21,3.82-0.86,5.34c-1,2.33-2.88,3.63-5.01,3.63c-1.9,0-3.47-0.9-4.51-2.64c-1-1.64-1.28-3.73-1.28-6.34
			C191.06,366.69,191.11,365.48,191.34,364.29z M193.69,373.37c0.74,1.23,1.95,1.92,3.18,1.92c2.47,0,4.25-2.38,4.25-7.39
			c0-4.99-1.76-7.39-4.25-7.39c-1.26,0-2.45,0.74-3.18,1.97c-0.78,1.31-0.97,3.09-0.97,5.42
			C192.72,370.26,192.91,372.06,193.69,373.37z"/>
		<path d="M214.65,360.61c-1.66,0-2.61,0.93-3.28,2.71h-1.73c0.64-2.92,2.61-4.37,4.99-4.37c2.75,0,4.92,1.97,4.92,4.39
			c0,1.45-0.74,2.64-2.19,3.49c2.02,0.83,3.11,2.64,3.11,4.51c0,2.85-2.26,5.51-5.8,5.51c-2.94,0-4.99-1.69-5.6-4.99h1.69
			c0.57,2.16,1.73,3.33,3.94,3.33c2.49,0,4.11-1.76,4.11-3.73c0-1.26-0.71-2.42-1.9-3.06c-0.97-0.52-2-0.59-3.09-0.64v-1.57
			c2.71-0.17,3.94-1.28,3.94-2.85C217.76,361.9,216.5,360.61,214.65,360.61z"/>
		<path d="M230.92,366.93c-2.28,0-4.01-1.88-4.01-3.9c0-2.59,2.02-4.08,4.01-4.08c2.11,0,3.99,1.64,3.99,3.97
			C234.91,365.29,232.98,366.93,230.92,366.93z M230.89,360.19c-1.35,0-2.61,1.14-2.61,2.83c0,1.4,1.24,2.68,2.57,2.68
			c1.66,0,2.68-1.35,2.68-2.73C233.53,361.42,232.44,360.19,230.89,360.19z"/>
		<path d="M253.84,376.43v-17.06h0.36l11.31,13.07v-13.07h1.71v17.06h-0.38l-11.28-12.9v12.9H253.84z"/>
		<path d="M277.5,373.3l1.54,0.74l-2.35,4.39l-1.14-0.47L277.5,373.3z"/>
		<path d="M303.39,358.95c2.8,0,4.87,2.09,4.87,4.49c0,1.57-0.78,2.76-2.4,3.63c2.07,1.05,3.21,2.38,3.21,4.47
			c0,2.71-1.97,5.3-5.8,5.3c-3.73,0-5.72-2.52-5.72-5.15c0-2.19,1.23-3.56,3.3-4.61c-1.71-0.88-2.54-2.21-2.54-3.68
			C298.31,361.04,300.49,358.95,303.39,358.95z M299.21,371.73c0,1.88,1.54,3.54,4.09,3.54c2.49,0,4.11-1.73,4.11-3.71
			c0-1.8-1.69-3.63-4.01-3.63C300.95,367.93,299.21,369.81,299.21,371.73z M300.09,363.42c0,1.59,1.59,2.95,3.28,2.95
			c1.92,0,3.23-1.54,3.23-2.99c0-1.31-1.12-2.75-3.28-2.75C301.47,360.61,300.09,361.87,300.09,363.42z"/>
		<path d="M326.32,359.38v1.66h-6.08l-0.83,4.61c0.43-0.12,1.05-0.31,2-0.31c3.21,0,5.39,2.4,5.39,5.54c0,3.28-2.28,5.96-5.99,5.96
			c-2.9,0-4.85-1.92-5.2-4.54h1.76c0.43,2.09,2.02,2.97,3.56,2.97c2.19,0,4.09-1.85,4.09-4.46c0-2.3-1.57-3.9-4.01-3.9
			c-1.33,0-2.49,0.45-3.63,0.93l1.57-8.46H326.32z"/>
		<path d="M337.55,375.32c0,0.81-0.64,1.45-1.43,1.45c-0.81,0-1.42-0.67-1.42-1.45s0.64-1.45,1.42-1.45
			C336.89,373.87,337.55,374.51,337.55,375.32z"/>
		<path d="M350.54,358.95c2.8,0,4.87,2.09,4.87,4.49c0,1.57-0.78,2.76-2.4,3.63c2.07,1.05,3.21,2.38,3.21,4.47
			c0,2.71-1.97,5.3-5.8,5.3c-3.73,0-5.72-2.52-5.72-5.15c0-2.19,1.23-3.56,3.3-4.61c-1.71-0.88-2.54-2.21-2.54-3.68
			C345.46,361.04,347.65,358.95,350.54,358.95z M346.36,371.73c0,1.88,1.54,3.54,4.09,3.54c2.49,0,4.11-1.73,4.11-3.71
			c0-1.8-1.69-3.63-4.01-3.63C348.1,367.93,346.36,369.81,346.36,371.73z M347.24,363.42c0,1.59,1.59,2.95,3.28,2.95
			c1.92,0,3.23-1.54,3.23-2.99c0-1.31-1.12-2.75-3.28-2.75C348.62,360.61,347.24,361.87,347.24,363.42z"/>
		<path d="M368.19,360.61c-1.66,0-2.61,0.93-3.28,2.71h-1.73c0.64-2.92,2.61-4.37,4.99-4.37c2.75,0,4.92,1.97,4.92,4.39
			c0,1.45-0.74,2.64-2.19,3.49c2.02,0.83,3.11,2.64,3.11,4.51c0,2.85-2.26,5.51-5.8,5.51c-2.94,0-4.99-1.69-5.6-4.99h1.69
			c0.57,2.16,1.73,3.33,3.94,3.33c2.49,0,4.11-1.76,4.11-3.73c0-1.26-0.71-2.42-1.9-3.06c-0.97-0.52-2-0.59-3.09-0.64v-1.57
			c2.71-0.17,3.94-1.28,3.94-2.85C371.31,361.9,370.05,360.61,368.19,360.61z"/>
		<path d="M389.81,358.95h0.36v11.85h2.07v1.66h-2.07v3.97h-1.71v-3.97h-8.15L389.81,358.95z M388.46,370.8v-7.08l-5.01,7.08H388.46
			z"/>
		<path d="M409.29,359.38v1.66h-6.08l-0.83,4.61c0.43-0.12,1.05-0.31,2-0.31c3.21,0,5.39,2.4,5.39,5.54c0,3.28-2.28,5.96-5.99,5.96
			c-2.9,0-4.85-1.92-5.2-4.54h1.76c0.43,2.09,2.02,2.97,3.56,2.97c2.19,0,4.09-1.85,4.09-4.46c0-2.3-1.57-3.9-4.01-3.9
			c-1.33,0-2.49,0.45-3.63,0.93l1.57-8.46H409.29z"/>
		<path d="M420.29,366.93c-2.28,0-4.01-1.88-4.01-3.9c0-2.59,2.02-4.08,4.01-4.08c2.11,0,3.99,1.64,3.99,3.97
			C424.28,365.29,422.35,366.93,420.29,366.93z M420.26,360.19c-1.35,0-2.61,1.14-2.61,2.83c0,1.4,1.24,2.68,2.57,2.68
			c1.66,0,2.68-1.35,2.68-2.73C422.9,361.42,421.81,360.19,420.26,360.19z"/>
		<path d="M442.21,359.38h1.76l3.47,12.28l4.89-12.28h0.36l4.82,12.28l3.54-12.28h1.73l-4.89,17.06h-0.33l-5.04-12.9l-5.18,12.9
			h-0.31L442.21,359.38z"/>
	</g>
</g>
</svg>
