<?xml version="1.0" encoding="utf-8"?>
<!-- Generator: Adobe Illustrator 27.2.0, SVG Export Plug-In . SVG Version: 6.00 Build 0)  -->
<svg version="1.1" id="Layer_1" xmlns="http://www.w3.org/2000/svg" xmlns:xlink="http://www.w3.org/1999/xlink" x="0px" y="0px"
	 viewBox="0 0 788.3 115.6" style="enable-background:new 0 0 788.3 115.6;" xml:space="preserve">
<g>
	<rect x="100.8" y="9" width="2.1" height="81.2"/>
	<rect x="86.5" y="11" transform="matrix(0.9659 -0.2588 0.2588 0.9659 -10.3725 24.4069)" width="2.1" height="81.2"/>
	<rect x="73.1" y="16.6" transform="matrix(0.866 -0.5 0.5 0.866 -18.6764 44.7387)" width="2.1" height="81.2"/>
	<rect x="61.6" y="25.5" transform="matrix(0.7071 -0.7071 0.7071 0.7071 -28.3943 63.6848)" width="2.1" height="81.2"/>
	<rect x="52.9" y="37" transform="matrix(0.5 -0.866 0.866 0.5 -40.3047 85.5225)" width="2.1" height="81.2"/>
	<rect x="47.4" y="50.5" transform="matrix(0.2588 -0.9659 0.9659 0.2588 -52.1096 114.2962)" width="2.1" height="81.2"/>
	<rect x="6" y="104.4" width="81.2" height="2.1"/>
	<rect x="117.1" y="103.8" width="81.2" height="2.1"/>
	<rect x="115.2" y="89.5" transform="matrix(0.9659 -0.2588 0.2588 0.9659 -18.1184 43.3998)" width="81.2" height="2.1"/>
	<rect x="109.5" y="76.1" transform="matrix(0.866 -0.5 0.5 0.866 -18.4549 85.415)" width="81.2" height="2.1"/>
	<rect x="100.6" y="64.6" transform="matrix(0.7071 -0.7071 0.7071 0.7071 -5.0699 119.1284)" width="81.2" height="2.1"/>
	<rect x="89.1" y="55.9" transform="matrix(0.5 -0.866 0.866 0.5 15.5566 140.7903)" width="81.2" height="2.1"/>
	<rect x="75.7" y="50.4" transform="matrix(0.2588 -0.9659 0.9659 0.2588 36.4827 150.4434)" width="81.2" height="2.1"/>
</g>
<g>
	<path d="M237.5,41.4h4.9v48.8h-4.9V41.4z"/>
	<path d="M267.2,90.2V41.4h1l32.4,37.4V41.4h4.9v48.8h-1.1l-32.3-36.9v36.9H267.2z"/>
	<path d="M331,41.4h12c5.4,0,10.3,0.3,15.2,2.2c8.8,3.5,14,12,14,22.7c0,13.9-8.4,23.9-24.1,23.9H331L331,41.4L331,41.4z
		 M343.1,85.4c9.2,0,15.4-0.8,19.7-6.1c2.8-3.4,4.3-7.8,4.3-12.9c0-5-1.4-9.4-4.1-12.9c-4.6-6-11.6-7.3-22.2-7.3h-5v39.3H343.1
		L343.1,85.4z"/>
	<path d="M444.6,65.8c0,14.3-11.2,25.6-25.7,25.6c-15,0-25.8-11.8-25.8-25.4c0-14.5,11.3-25.8,25.4-25.8
		C433.3,40.1,444.6,51.2,444.6,65.8z M398.2,66c0,12,9.5,20.7,20.5,20.7c11.4,0,20.8-8.7,20.8-20.9c0-12.4-9.9-20.8-20.8-20.8
		C408,44.9,398.2,53.5,398.2,66z"/>
	<path d="M496.7,41.4h5.3l16.2,37.7l16.5-37.8h5.3l-21.2,48.8h-1.1L496.7,41.4z"/>
	<path d="M561,41.4h4.9v48.8H561V41.4z"/>
	<path d="M590.8,41.4h4.9v44.1h18.8v4.8h-23.7L590.8,41.4L590.8,41.4z"/>
	<path d="M635.8,41.4h4.9v44.1h18.8v4.8h-23.7L635.8,41.4L635.8,41.4z"/>
	<path d="M700.8,41.4l22.8,48.8h-5.2l-7.7-16.1h-21.1L682,90.2h-5.4l23.1-48.8C699.7,41.4,700.8,41.4,700.8,41.4z M700.2,51.7
		l-8.4,17.7h16.7L700.2,51.7z"/>
	<path d="M763.5,51.2c-2.7-3.5-5-6-9-6c-4.2,0-6.6,3-6.6,6.2c0,2.7,1.6,5.4,4.3,7.5c9.2,6.8,15.9,11.5,15.9,19.4
		c0,6.9-5.8,13.1-13.7,13.1c-6.7,0-11.2-3.7-14.8-10.3l4.2-2.5c2.9,5.4,6.5,8.1,10.2,8.1c5.1,0,9-3.7,9-8.3c0-5.4-5-8.4-16.1-17.4
		c-2.3-1.8-4.2-5.7-4.2-9.4c0-6.7,5.2-11.4,11.8-11.4c6,0,9.6,3.6,12.8,8L763.5,51.2z"/>
</g>
</svg>
