<?xml version="1.0" encoding="utf-8"?>
<!-- Generator: Adobe Illustrator 27.0.1, SVG Export Plug-In . SVG Version: 6.00 Build 0)  -->
<svg version="1.1" id="Layer_1" xmlns="http://www.w3.org/2000/svg" xmlns:xlink="http://www.w3.org/1999/xlink" x="0px" y="0px"
	 viewBox="0 0 788.3 115.56" style="enable-background:new 0 0 788.3 115.56;" xml:space="preserve">
<g>
	<rect x="100.83" y="9" width="2.11" height="81.24"/>
	<rect x="86.46" y="10.98" transform="matrix(0.9659 -0.2588 0.2588 0.9659 -10.3717 24.4068)" width="2.11" height="81.24"/>
	<rect x="73.09" y="16.6" transform="matrix(0.866 -0.5 0.5 0.866 -18.6758 44.7391)" width="2.11" height="81.24"/>
	<rect x="61.62" y="25.49" transform="matrix(0.7071 -0.7071 0.7071 0.7071 -28.3905 63.6862)" width="2.11" height="81.24"/>
	<rect x="52.86" y="37.05" transform="matrix(0.5 -0.866 0.866 0.5 -40.3075 85.5232)" width="2.11" height="81.24"/>
	<rect x="47.38" y="50.48" transform="matrix(0.2588 -0.9659 0.9659 0.2588 -52.1024 114.3084)" width="2.11" height="81.24"/>
	<rect x="6" y="104.44" width="81.24" height="2.11"/>
	<rect x="117.14" y="103.83" width="81.24" height="2.11"/>
	<rect x="115.17" y="89.46" transform="matrix(0.9659 -0.2588 0.2588 0.9659 -18.1197 43.403)" width="81.24" height="2.11"/>
	<rect x="109.54" y="76.09" transform="matrix(0.866 -0.5 0.5 0.866 -18.4539 85.4191)" width="81.24" height="2.11"/>
	<rect x="100.65" y="64.63" transform="matrix(0.7071 -0.7071 0.7071 0.7071 -5.071 119.1339)" width="81.24" height="2.11"/>
	<rect x="89.09" y="55.86" transform="matrix(0.5 -0.866 0.866 0.5 15.5632 140.7937)" width="81.24" height="2.11"/>
	<rect x="75.66" y="50.38" transform="matrix(0.2588 -0.9659 0.9659 0.2588 36.4983 150.447)" width="81.24" height="2.11"/>
</g>
<g>
	<path d="M237.46,41.37h4.89V90.2h-4.89V41.37z"/>
	<path d="M267.25,90.19V41.36h1.02l32.38,37.4v-37.4h4.89v48.83h-1.08l-32.3-36.92v36.92H267.25z"/>
	<path d="M331.04,41.37h12.04c5.37,0,10.34,0.27,15.17,2.24c8.77,3.53,14.01,11.97,14.01,22.72c0,13.94-8.43,23.87-24.15,23.87
		h-17.07L331.04,41.37L331.04,41.37z M343.14,85.44c9.25,0,15.37-0.81,19.73-6.12c2.78-3.4,4.29-7.82,4.29-12.92
		c0-4.96-1.36-9.39-4.08-12.93c-4.62-6.05-11.56-7.34-22.18-7.34h-4.96v39.31L343.14,85.44L343.14,85.44z"/>
	<path d="M444.6,65.78c0,14.35-11.22,25.64-25.71,25.64c-15.03,0-25.77-11.77-25.77-25.44c0-14.55,11.28-25.85,25.37-25.85
		C433.31,40.14,444.6,51.22,444.6,65.78z M398.22,65.99c0,12.04,9.52,20.67,20.54,20.67c11.42,0,20.75-8.71,20.75-20.94
		c0-12.38-9.93-20.81-20.75-20.81C408.01,44.91,398.22,53.47,398.22,65.99z"/>
	<path d="M496.69,41.37H502l16.19,37.75l16.46-37.75h5.31l-21.22,48.82h-1.09L496.69,41.37z"/>
	<path d="M561.02,41.37h4.89V90.2h-4.89V41.37z"/>
	<path d="M590.75,41.37h4.89v44.07h18.78v4.76h-23.67V41.37z"/>
	<path d="M635.84,41.37h4.89v44.07h18.78v4.76h-23.67V41.37z"/>
	<path d="M700.85,41.37l22.78,48.83h-5.24l-7.69-16.05h-21.08L682,90.2h-5.44l23.12-48.83H700.85z M700.24,51.71l-8.43,17.68h16.73
		L700.24,51.71z"/>
	<path d="M763.55,51.15c-2.65-3.47-4.96-5.99-8.98-5.99c-4.21,0-6.59,2.99-6.59,6.19c0,2.65,1.56,5.44,4.35,7.55
		c9.18,6.8,15.92,11.49,15.92,19.38c0,6.87-5.78,13.12-13.74,13.12c-6.73,0-11.15-3.74-14.76-10.34l4.15-2.51
		c2.92,5.37,6.46,8.09,10.2,8.09c5.1,0,9.04-3.74,9.04-8.29c0-5.37-5.03-8.43-16.11-17.41c-2.32-1.84-4.15-5.72-4.15-9.39
		c0-6.73,5.24-11.42,11.83-11.42c5.99,0,9.59,3.61,12.79,7.96L763.55,51.15z"/>
</g>
</svg>
